HIERARCHY
ROOT Hips
{
	OFFSET -14.64140 90.27770 -84.91600
	CHANNELS 6 Xposition Yposition Zposition Zrotation Xrotation Yrotation
	JOINT Spine
	{
		OFFSET 0.00000 13.20850 -1.60436
		CHANNELS 3 Zrotation Xrotation Yrotation
		JOINT Spine1
		{
			OFFSET 0.00000 8.61716 0.00000
			CHANNELS 3 Zrotation Xrotation Yrotation
			JOINT Spine2
			{
				OFFSET 0.00000 8.61717 0.00000
				CHANNELS 3 Zrotation Xrotation Yrotation
				JOINT Spine3
				{
					OFFSET 0.00000 8.61717 0.00000
					CHANNELS 3 Zrotation Xrotation Yrotation
					JOINT Neck
					{
						OFFSET 0.00000 11.07920 1.10792
						CHANNELS 3 Zrotation Xrotation Yrotation
						JOINT Neck1
						{
							OFFSET 0.00000 7.08032 0.00000
							CHANNELS 3 Zrotation Xrotation Yrotation
							JOINT Head
							{
								OFFSET 0.00000 7.08031 0.00000
								CHANNELS 3 Zrotation Xrotation Yrotation
								End site
								{
									OFFSET 0.00000 0.00000 0.00000
								}
							}
						}
					}
					JOINT RightShoulder
					{
						OFFSET -0.01000 7.91373 5.19711
						CHANNELS 3 Zrotation Xrotation Yrotation
						JOINT RightArm
						{
							OFFSET -18.41580 0.00000 0.00000
							CHANNELS 3 Zrotation Xrotation Yrotation
							JOINT RightForeArm
							{
								OFFSET -29.11090 0.00000 0.00000
								CHANNELS 3 Zrotation Xrotation Yrotation
								JOINT RightHand
								{
									OFFSET -24.65040 0.00000 0.00000
									CHANNELS 3 Zrotation Xrotation Yrotation
									JOINT RightHandThumb1
									{
										OFFSET -5.35114 -0.85590 3.97906
										CHANNELS 3 Zrotation Xrotation Yrotation
										JOINT RightHandThumb2
										{
											OFFSET -4.52789 0.00000 0.00000
											CHANNELS 3 Zrotation Xrotation Yrotation
											JOINT RightHandThumb3
											{
												OFFSET -2.46976 0.00000 0.00000
												CHANNELS 3 Zrotation Xrotation Yrotation
												End site
												{
													OFFSET 0.00000 0.00000 0.00000
												}
											}
										}
									}
									JOINT RightHandIndex1
									{
										OFFSET -14.26970 0.00000 2.88139
										CHANNELS 3 Zrotation Xrotation Yrotation
										JOINT RightHandIndex2
										{
											OFFSET -5.48836 0.00000 0.00000
											CHANNELS 3 Zrotation Xrotation Yrotation
											JOINT RightHandIndex3
											{
												OFFSET -3.01859 0.00000 0.00000
												CHANNELS 3 Zrotation Xrotation Yrotation
												End site
												{
													OFFSET 0.00000 0.00000 0.00000
												}
											}
										}
									}
									JOINT RightHandMiddle1
									{
										OFFSET -14.26970 0.00000 -0.09147
										CHANNELS 3 Zrotation Xrotation Yrotation
										JOINT RightHandMiddle2
										{
											OFFSET -6.17441 0.00000 0.00000
											CHANNELS 3 Zrotation Xrotation Yrotation
											JOINT RightHandMiddle3
											{
												OFFSET -3.56743 0.00000 0.00000
												CHANNELS 3 Zrotation Xrotation Yrotation
												End site
												{
													OFFSET 0.00000 0.00000 0.00000
												}
											}
										}
									}
									JOINT RightHandRing1
									{
										OFFSET -12.69180 0.00000 -3.06433
										CHANNELS 3 Zrotation Xrotation Yrotation
										JOINT RightHandRing2
										{
											OFFSET -5.62556 0.00000 0.00000
											CHANNELS 3 Zrotation Xrotation Yrotation
											JOINT RightHandRing3
											{
												OFFSET -3.56744 0.00000 0.00000
												CHANNELS 3 Zrotation Xrotation Yrotation
												End site
												{
													OFFSET 0.00000 0.00000 0.00000
												}
											}
										}
									}
									JOINT RightHandPinky1
									{
										OFFSET -11.11390 0.00000 -6.03719
										CHANNELS 3 Zrotation Xrotation Yrotation
										JOINT RightHandPinky2
										{
											OFFSET -4.52789 0.00000 0.00000
											CHANNELS 3 Zrotation Xrotation Yrotation
											JOINT RightHandPinky3
											{
												OFFSET -2.46976 0.00000 0.00000
												CHANNELS 3 Zrotation Xrotation Yrotation
												End site
												{
													OFFSET 0.00000 0.00000 0.00000
												}
											}
										}
									}
								}
							}
						}
					}
					JOINT LeftShoulder
					{
						OFFSET 0.01000 7.91373 5.19711
						CHANNELS 3 Zrotation Xrotation Yrotation
						JOINT LeftArm
						{
							OFFSET 18.41580 0.00000 0.00000
							CHANNELS 3 Zrotation Xrotation Yrotation
							JOINT LeftForeArm
							{
								OFFSET 29.11090 0.00000 0.00000
								CHANNELS 3 Zrotation Xrotation Yrotation
								JOINT LeftHand
								{
									OFFSET 24.65040 0.00000 0.00000
									CHANNELS 3 Zrotation Xrotation Yrotation
									JOINT LeftHandThumb1
									{
										OFFSET 5.35114 -0.85590 3.97906
										CHANNELS 3 Zrotation Xrotation Yrotation
										JOINT LeftHandThumb2
										{
											OFFSET 4.52789 0.00000 0.00000
											CHANNELS 3 Zrotation Xrotation Yrotation
											JOINT LeftHandThumb3
											{
												OFFSET 2.46977 0.00000 0.00000
												CHANNELS 3 Zrotation Xrotation Yrotation
												End site
												{
													OFFSET 0.00000 0.00000 0.00000
												}
											}
										}
									}
									JOINT LeftHandIndex1
									{
										OFFSET 14.26970 0.00000 2.88139
										CHANNELS 3 Zrotation Xrotation Yrotation
										JOINT LeftHandIndex2
										{
											OFFSET 5.48836 0.00000 0.00000
											CHANNELS 3 Zrotation Xrotation Yrotation
											JOINT LeftHandIndex3
											{
												OFFSET 3.01859 0.00000 0.00000
												CHANNELS 3 Zrotation Xrotation Yrotation
												End site
												{
													OFFSET 0.00000 0.00000 0.00000
												}
											}
										}
									}
									JOINT LeftHandMiddle1
									{
										OFFSET 14.26970 0.00000 -0.09147
										CHANNELS 3 Zrotation Xrotation Yrotation
										JOINT LeftHandMiddle2
										{
											OFFSET 6.17440 0.00000 0.00000
											CHANNELS 3 Zrotation Xrotation Yrotation
											JOINT LeftHandMiddle3
											{
												OFFSET 3.56744 0.00000 0.00000
												CHANNELS 3 Zrotation Xrotation Yrotation
												End site
												{
													OFFSET 0.00000 0.00000 0.00000
												}
											}
										}
									}
									JOINT LeftHandRing1
									{
										OFFSET 12.69180 0.00000 -3.06433
										CHANNELS 3 Zrotation Xrotation Yrotation
										JOINT LeftHandRing2
										{
											OFFSET 5.62556 0.00000 0.00000
											CHANNELS 3 Zrotation Xrotation Yrotation
											JOINT LeftHandRing3
											{
												OFFSET 3.56744 0.00000 0.00000
												CHANNELS 3 Zrotation Xrotation Yrotation
												End site
												{
													OFFSET 0.00000 0.00000 0.00000
												}
											}
										}
									}
									JOINT LeftHandPinky1
									{
										OFFSET 11.11390 0.00000 -6.03719
										CHANNELS 3 Zrotation Xrotation Yrotation
										JOINT LeftHandPinky2
										{
											OFFSET 4.52789 0.00000 0.00000
											CHANNELS 3 Zrotation Xrotation Yrotation
											JOINT LeftHandPinky3
											{
												OFFSET 2.46976 0.00000 0.00000
												CHANNELS 3 Zrotation Xrotation Yrotation
												End site
												{
													OFFSET 0.00000 0.00000 0.00000
												}
											}
										}
									}
								}
							}
						}
					}
					JOINT pCube4
					{
						OFFSET 0.00000 10.91090 1.10792
						CHANNELS 3 Zrotation Xrotation Yrotation
						End site
						{
							OFFSET 0.00000 0.00000 0.00000
						}
					}
				}
			}
		}
	}
	JOINT RightUpLeg
	{
		OFFSET -9.98441 0.00000 0.00000
		CHANNELS 3 Zrotation Xrotation Yrotation
		JOINT RightLeg
		{
			OFFSET 0.00000 -42.11790 0.00000
			CHANNELS 3 Zrotation Xrotation Yrotation
			JOINT RightFoot
			{
				OFFSET 0.00000 -45.00020 -0.00001
				CHANNELS 3 Zrotation Xrotation Yrotation
				JOINT RightForeFoot
				{
					OFFSET 0.00000 -3.74820 0.00000
					CHANNELS 3 Zrotation Xrotation Yrotation
					JOINT RightToeBase
					{
						OFFSET 0.00000 0.06325 14.43120
						CHANNELS 3 Zrotation Xrotation Yrotation
						End site
						{
							OFFSET 0.00000 0.00000 0.00000
						}
					}
				}
			}
		}
	}
	JOINT LeftUpLeg
	{
		OFFSET 9.98441 0.00000 0.00000
		CHANNELS 3 Zrotation Xrotation Yrotation
		JOINT LeftLeg
		{
			OFFSET 0.00000 -42.11800 0.00000
			CHANNELS 3 Zrotation Xrotation Yrotation
			JOINT LeftFoot
			{
				OFFSET 0.00000 -45.00070 0.00000
				CHANNELS 3 Zrotation Xrotation Yrotation
				JOINT LeftForeFoot
				{
					OFFSET 0.00000 -3.74824 0.00000
					CHANNELS 3 Zrotation Xrotation Yrotation
					JOINT LeftToeBase
					{
						OFFSET 0.00000 0.06325 14.43110
						CHANNELS 3 Zrotation Xrotation Yrotation
						End site
						{
							OFFSET 0.00000 0.00000 0.00000
						}
					}
				}
			}
		}
	}
}
MOTION
Frames: 4
Frame Time: 0.050000
-0.04792613034191773 -0.021978280112724135 -0.02206823216804645 -0.015916445029405948 0.025680732439014288 0.04045395868593235 1.3666751903771817 2.367480240659061 -1.526934679939043 -0.5478426882984407 3.9671375738880204 0.34983143579504644 -0.6741299805946303 -1.4293280008800326 1.8834322802193049 -0.8141976545875114 -0.6436097230076816 -0.21021301462000364 0.022772067900831805 12.455060071514211 -0.8532295369567338 0.4383903139535906 -1.1483835344116753 -2.9961440547442217 0.9281623878423448 -17.070662704222563 -0.29657023673186644 -4.523545020685221 1.8573973620347983 -16.14349026210568 72.52266428210694 15.31666678862927 6.9646331019492695 0.40530833469900684 1.4407545875277998 65.55173389548915 27.36879138157861 -0.31899970161145386 -5.716132717529327 4.553986373001143 -0.11876857877717893 -1.5562243871920978 -0.0025407822446162475 0.02213366084766768 -56.24696662587827 3.4585299119843086e-05 0.011638494563668597 -56.24781149292346 -38.81782864495814 -0.005308089067423423 0.018855024239573435 -0.02093071031212586 -0.040390989100417225 0.006497931180432166 -0.008389878106748355 -0.022844745556869606 0.03631224244469695 -36.66006529053124 -0.0007389920774368142 0.04942260700244293 -0.03565710457713585 -0.04750282850461478 0.012363457602964555 0.012286953960330903 0.027787846282866905 -0.02353977557924491 -19.740097378237937 0.017068801688238943 -0.0006022814059683978 -0.043593596883911234 0.008640880824597751 0.012113904206988664 -0.0017856386049916824 0.01573998985181356 -0.027739697827875904 24.03433277014652 -0.03209360445389908 -0.013543699375648248 28.86423373238165 -0.008667018658108564 -0.03412422208670234 28.887922904568182 -0.037687724982840884 0.021838814292283012 4.338948076887385 1.402829183300545 14.891704605051496 -79.12644274171431 22.170828826667726 -2.1174737427138735 9.418587809026345 3.9797110308156025 -36.83188940547868 -28.54273781945924 9.214121077287029 -5.17302355571374 -0.5154610051352051 0.0583224228325944 -8.158848484314555 -0.03223946097501114 -0.02423600316464513 44.56007727239922 0.015263563268393341 -0.021132895082839498 44.55059627214331 12.478214757050559 -0.011247343967424793 -0.004761973381514033 0.003114059499076495 -0.04435394546930526 0.03551350060036106 0.0054524782486840605 -0.024086900771119756 -0.017447265323615516 11.127755751911016 0.02684663616632388 -0.009591714395476856 -0.019690770050894868 -0.016428940372858993 -0.02533050844041626 0.02007065168713097 -0.029112973081180552 -0.02542699923664804 4.76306563707411 -0.007166611303489669 0.0007478916383818693 -0.03208220480393988 -0.03622073852538855 0.018320708406118966 0.034633587142478696 -0.025968566469529414 -0.008378296733423364 -5.600177988529767 -0.00428473037749052 -0.0241563690662725 -6.759072340379094 -0.039379879408141555 0.03316092076884188 -6.673497197860759 0.026246441665217397 0.014365886214266634 0.04420491118943074 -0.004436181443756167 -0.020769827578029993 8.082716318577509 3.479162559395635 -19.229006297507627 -0.005436818482279661 10.377742486313995 -0.0006993913071556314 -5.617616178423278 -15.656154522688203 3.161399050084838 -0.022110150571315827 -0.024088105942085058 -0.02634480577947806 0.011970106156488185 4.730194452371221 0.03187487459538248 12.42577034885432 -8.280381462873931 6.881009272556256 -0.014918174923798664 46.419394577309156 -0.01755571361247479 -4.337353926327561 -14.789358199069573 -3.8628171010787726 0.032645770231355765 -0.04500539681747489 -0.01185442815321074 -0.02224851539204826 -10.736864368280408 0.03398706948536491 
-0.047706569895596934 0.012571611551785414 0.006568900117617394 -0.027560886685393284 0.013975520152729438 -0.04335499493710631 1.7531915694647022 2.5356173666739497 -1.5678468497181872 -0.5302704968196061 3.83050291777477 0.37410359780374464 -0.6746974730245594 -1.4462450501856052 1.73509371406023 -0.8518841948641952 -0.6144818364516936 -0.260626443518512 0.05058199945047573 12.277366693342639 -0.9245323880177888 0.4966340977313468 -1.1115838360030224 -3.03089169011154 0.9677420275604459 -17.15574679977042 -0.2524398614040757 -5.063392059106186 2.0279901892904686 -16.429781170076936 74.43760770081491 13.981040518138704 6.072828829742446 -1.6513009718503868 0.7517575446238297 61.867820235168246 26.993518546362147 -0.25582132522936685 -5.722039430101193 4.560795833012347 -0.13537629632466797 -1.621545569326014 -0.018950843027914187 -0.011662935500092545 -56.253428685157324 0.021401440580414405 0.0360211429743446 -56.25279680226568 -38.72737224901463 -0.04466002889518469 -0.019700111247733878 -0.011099785931188906 0.04304023904847165 -0.02614594014602325 -0.03718245126833426 0.00740015909850688 6.85794030626975e-05 -36.695280257423995 -0.030022515750480212 -0.04558154635658475 0.015177837093176412 -0.04793819601547331 0.03573641145039236 -0.01816735020971434 -0.02837375672302624 -0.04496206762957536 -19.746446907810245 -0.01768168342269517 -0.004260613294598302 -0.025095463723343297 0.01460673743900701 0.0162635576124169 -0.0010789635773397334 0.02854688519304616 -0.03362069467450569 24.081663437382684 -0.04788775833653977 0.020346791844992808 28.881042960152588 0.04881563695683256 -0.0167043367857296 28.91215614783414 0.007462366020435184 -0.0012614185756412916 4.7415727973220045 1.4552965010414443 14.931314880776918 -79.34340725529287 21.77527078698682 -2.569333445883934 9.40590752991544 3.5587476369276003 -36.15836375576275 -27.709952455057074 8.045992111479155 -4.051168769971638 -0.4549857023072603 0.05586548131707245 -8.133590382541296 0.017511566250425895 0.02146619989025083 44.5837185316384 -0.015852151849680366 0.04295438149688002 44.545710844421656 12.460875916779779 0.029498954407842535 0.044053305020820936 0.010560547105163387 -0.03427544119490771 -0.0471560863382319 -0.003558738099148089 0.011070424062037827 -0.01287357861773987 11.14660558816735 -0.002750494087253786 -0.02678205186390824 0.04352016160341242 0.01656613788803963 -0.0007748671439492454 0.019922563858584513 -0.041570804667966296 0.030592502805248396 4.733412317159469 0.00474613011659327 0.03400824025308065 -0.01371313711764952 -0.011889560935505139 -0.028564927956459027 -0.017253312657040807 0.049911138362381924 -0.03209810602171936 -5.613188998963623 0.03411220666233158 -0.001742271076652464 -6.765257114602062 -0.026174298040620318 -0.02587024618181991 -6.7561705147587805 0.0334608297287801 -0.0038712449599316574 -0.03203909690771752 -0.03527521883894702 -0.03347863706897234 8.03704202312445 3.4761236286807002 -19.22600433072053 0.03724127421782442 10.39334407357848 0.007629532605760176 -5.62058232238335 -15.66277025085795 3.2079733980965637 -0.04673348119173269 -0.020578776409740342 0.013890199776308926 0.010762608893470717 4.670792464307666 0.036702593692856576 12.432387180970368 -8.219683563063159 6.91305020832292 -0.02820617887400289 46.38984702014253 0.01085938232735851 -4.332903193131482 -14.766650112764397 -3.83028278968106 0.0020544016306891315 0.00999356210594372 0.018272269668813502 0.010878878767420276 -10.720207657713981 0.04221729534183272 
0.021890709588042567 -0.028677187330205647 -0.014547104099078082 0.004806071757595173 -0.0163708758414261 -0.036878988894464976 2.3424791374252214 2.679840123692217 -1.6397259993453632 -0.527534317335763 3.8795262747247055 0.3571232807833573 -0.6726594647864433 -1.4011171346144535 1.6299929418680486 -0.754750093491097 -0.5746065726827037 -0.21323442969545572 0.06845231315121572 12.305265642005274 -1.0275410473250952 0.4929068818886498 -1.0474400083507331 -3.0091744201839234 1.0847868077521083 -17.14541686041413 -0.3065371370848066 -5.8801898059141315 2.3128712863240066 -16.829052250521965 76.20788870339408 13.010429710271396 5.642860258298265 -3.5828081760682764 0.23248908629086196 59.56358922282784 26.647154933502385 -0.32034152594775805 -5.733724599858717 4.487048594307563 -0.1303204626459326 -1.5724240768709614 0.03956969071662266 -0.00018874809878056592 -56.188394472296146 0.0018627311735806896 0.03911785478887132 -56.270855166036526 -38.74293434529085 0.015584541018698984 -0.021999881358274853 0.020686727470203593 -0.01328297163356283 -0.016841109636628503 -0.0020753078293895707 -0.02125601857221901 -0.017368137016616016 -36.711606812440536 -0.03600086135996031 -0.04383766795575558 -0.01966483540290046 -0.0022045853183462207 0.03206858199436355 -0.023096551509579476 -0.028836023097709117 -0.04639362247655538 -19.803979957111835 0.010230551334776263 -0.017130215774599063 0.03881437355329796 -0.003971519560387446 -0.04409476296662039 0.009421331346240767 -0.009374238106171592 0.009150526971289966 24.07742418387786 0.014921967469425711 -0.03015648959020985 28.867240138484583 0.048466670651513034 0.046956724690326315 28.874192344530957 0.014351993159974964 -0.04779526583145171 5.391449218841478 1.5719380169745 14.959808212862013 -79.62629616231894 21.241636792386096 -3.2073178025870943 9.377853002120709 3.6849334861011283 -35.84152663136108 -27.015865482771872 7.070688878469128 -3.110599425523638 -0.4253854827343493 0.09647819809639241 -8.114637065992476 0.046592585249991776 0.027753225520196666 44.592341994356815 -0.025795405362799707 0.0449578681997997 44.565081985304985 12.502117612188881 -0.020861248879306692 0.025416177637296627 0.011498050854575857 -0.012344868123778283 -0.03415603045574494 -0.040251563343444825 -0.04865347160961601 0.016145807834044266 11.08249463325049 0.028464174173914746 0.030055250592931706 0.029662623637207015 0.0061972016694495135 -0.019815418612101926 -0.03166456786542744 -0.04771693090892923 0.035877020857450176 4.780270906621525 -0.042882014636010615 0.023649390561324524 -0.04466241898282058 -0.008195038805111103 -0.010194463439145846 0.03109642428942579 0.014470074421253256 0.04187308885488088 -5.576883395094449 -0.007071875032240841 -0.00825144152025531 -6.672944850585864 0.015519635371549 0.038692473832897756 -6.742847323687908 0.014521633182727728 0.0035726666277948503 0.017745435779686722 -0.049682068838438315 0.005195953758878661 8.026233648319266 3.49299015109594 -19.20493071675254 -0.014132654320046525 10.354195435028803 -0.025665949739504253 -5.668963501456623 -15.692925990225515 3.2311523461257075 0.026251162990119405 -0.044059810204882636 -0.02077024804071708 -0.030578835654585256 4.685889390248221 0.015406772192459124 12.46297508000933 -8.284402887820175 6.910722257027069 -0.015275244248907464 46.35189183376382 0.006282125756916915 -4.298952636054512 -14.740927421431245 -3.8550926713816667 -0.041092689075531916 -0.0222725602851967 -0.022402481884309856 0.04490772269031067 -10.780631601773285 -0.015614158437073228 
0.03652954461453427 -0.008767729728443478 0.031182466470191336 0.029985549402526963 -0.03276097463772239 0.02649404949770931 2.880530151342596 2.814252179465439 -1.8109418068198881 -0.5985570065871991 3.7765328453201104 0.3110604185339052 -0.6513266340616274 -1.3309461505681506 1.587695157939321 -0.7623373092946185 -0.535078915754759 -0.16380971026117286 0.21129193180500402 12.387912089801073 -1.2311944132235848 0.5441504631636035 -0.9877266342119557 -3.281528386868034 1.1423957486542495 -17.234864493132424 -0.31394094787710536 -6.603439824136838 2.559169862545899 -17.123954535501493 77.69719906857092 12.515330089850295 5.157159301220074 -5.828643987571308 0.2300643390186837 57.45724661364904 26.210048683009056 -0.31319887241823025 -5.67047614201325 4.500785444303407 -0.11611985975358304 -1.58694192655428 0.002723178044550302 0.019776261819088342 -56.255840700641606 -0.02843547563400902 -0.017396890464313034 -56.20845884992068 -38.74560326574278 0.045539051525094645 0.01624908101122432 0.006751175449829351 0.002074808339089533 -0.02813638622605612 0.0010470463944332177 -0.022640823444488443 -0.017068315130878843 -36.66113924969024 -0.03984332852866042 -0.035244291179504596 0.04114469228171399 0.020476151346769913 -0.020661424226108116 0.037361974318515886 -0.03964614076790836 0.02894766127546583 -19.77355926189014 0.004203460522975099 -0.0333623649102153 0.0071800208284305235 0.016584752197388895 -0.02100753115821898 -0.037661155382804276 0.04974618668169506 0.04163046606461362 24.020467356986735 -0.037714195750615555 -0.044569814200041066 28.855914020277385 -0.03764929808127599 0.01533850164731176 28.914097112998352 0.020827840208380213 -0.04327230085806735 5.975028384206492 1.699737506721515 15.140013178129385 -79.76483092245452 20.76264127339053 -3.7569443518376464 9.191059732717301 4.135466255546801 -35.694528769157955 -26.532222778305847 6.084832961196181 -2.3759913064942255 -0.4447463728980647 0.06707165365865476 -8.113767998580961 0.04424672728940488 0.029009376102793437 44.58699576538584 -0.027596306248520053 0.029220092534263536 44.57773256111996 12.467877224412812 0.048748904773146216 -0.033854024634245874 -0.00046335008962451263 0.0012916834500560183 0.04842289321344432 0.021689161541955635 -0.025254640370164356 -0.026044665511026355 11.08660420474886 -0.04729247791847163 -0.0002207097069058886 -0.02217475265097076 -0.0395274194397159 0.022204119892180147 -0.022781440007641304 -0.0015907160407986419 -0.03184217613679069 4.7630817298190555 0.028217997191272222 -0.038084878334334736 -0.010368245912496094 -0.0260666536615002 -0.04883829233500247 -0.03185884632552665 -0.02839608931459539 -0.02379872181619666 -5.595283767626248 0.019170761001858678 0.01641787442347972 -6.728746165074653 0.013307031407973595 -0.021338405621224618 -6.749390594945463 -0.016216499660264658 -0.0038533608889104037 0.008687243207228799 0.04877440424451148 0.010498764214804964 8.081686190806545 3.5317738470007054 -19.254525257183662 0.027745917087532067 10.38159497419048 0.06395873715237492 -5.64768930892003 -15.640069096981417 3.2157928489524035 -0.0180668237977061 -0.02133689360755645 0.013996256763748998 0.04590455194130752 4.722463242986594 0.011155555986837153 12.436664021115002 -8.270665115326972 6.881347798990916 -0.048159933859787035 46.36594962962804 -0.025850817784448043 -4.297581282473576 -14.783333020719567 -3.8814252060779406 -0.008067301336559918 -0.031458097137802905 -0.004372686403034758 0.02054842776202216 -10.734325633652203 0.01855522409780085 
